<svg xmlns="http://www.w3.org/2000/svg" xmlns:xlink="http://www.w3.org/1999/xlink" width="960" height="1080" viewBox="0 0 960 1080"><defs><style>.a{fill:url(#a);}.b{fill:url(#b);}.c{clip-path:url(#c);}.d{opacity:0.201;}.e,.h{opacity:0.7;}.e{fill:url(#d);}.f,.i,.l{fill:none;}.f{stroke:#a3a0fb;}.f,.g,.i,.j{stroke-width:2px;}.g,.j{fill:#fff;}.g{stroke:#a4a1fb;}.h{fill:url(#f);}.i{stroke:#54d8ff;}.j{stroke:#55d8fe;}.k{stroke:none;}</style><linearGradient id="a" y1="1" x2="1" gradientUnits="objectBoundingBox"><stop offset="0" stop-color="#5c6ccd"/><stop offset="1" stop-color="#5753b5"/></linearGradient><linearGradient id="b" x1="0.897" y1="0.14" x2="0.206" y2="0.877" gradientUnits="objectBoundingBox"><stop offset="0" stop-color="#242348"/><stop offset="1" stop-color="#5a55aa"/></linearGradient><clipPath id="c"><rect class="a" width="960" height="1080"/></clipPath><linearGradient id="d" x1="0.5" x2="0.5" y2="1" gradientUnits="objectBoundingBox"><stop offset="0" stop-color="#a7a7ff"/><stop offset="1" stop-color="#fff" stop-opacity="0"/></linearGradient><linearGradient id="f" x1="0.5" x2="0.5" y2="1" gradientUnits="objectBoundingBox"><stop offset="0" stop-color="#54d8ff"/><stop offset="1" stop-color="#fff" stop-opacity="0"/></linearGradient></defs><rect class="b" width="960" height="1080"/><g class="c"><g class="d" transform="translate(-657.902 319.65)"><path class="e" d="M330,822.827V577.385s370.2,160.989,666,171.1c319.847-9.8,375.232-78.7,624.37-171.1,212.9-77.019,425.215-98.157,629-92.715s380.415,88.642,621.134,97.169c424.655-34.351,641.315-208.025,670.006-280.561V914.109L330,914.382Z" transform="translate(-330 -298.414)"/><path class="f" d="M313,524.853S680.815,689.679,971.635,693.228s402.525-85.057,625.275-168.156,434.508-97.281,629.465-94.488,384.48,89.875,624.023,94.5,627.073-150.528,670.166-279.841" transform="translate(-310.054 -245.24)"/><g class="g" transform="translate(1272.744 267.186)"><circle class="k" cx="12.259" cy="12.259" r="12.259"/><circle class="l" cx="12.259" cy="12.259" r="11.259"/></g><g class="g" transform="translate(847.357 419.878)"><circle class="k" cx="12.259" cy="12.259" r="12.259"/><circle class="l" cx="12.259" cy="12.259" r="11.259"/></g></g><g class="d" transform="translate(-810.302 581.775)"><path class="e" d="M330,822.827V577.385s370.2,160.989,666,171.1c319.847-9.8,375.232-78.7,624.37-171.1,212.9-77.019,425.215-98.157,629-92.715s380.415,88.642,621.134,97.169c424.655-34.351,641.315-208.025,670.006-280.561V914.109L330,914.382Z" transform="translate(-330 -298.414)"/><path class="f" d="M313,524.853S680.815,689.679,971.635,693.228s402.525-85.057,625.275-168.156,434.508-97.281,629.465-94.488,384.48,89.875,624.023,94.5,627.073-150.528,670.166-279.841" transform="translate(-310.054 -245.24)"/><g class="g" transform="translate(1272.744 267.186)"><circle class="k" cx="12.259" cy="12.259" r="12.259"/><circle class="l" cx="12.259" cy="12.259" r="11.259"/></g></g><g class="d" transform="translate(-845.159 344.74)"><path class="h" d="M330,729.221v-374.8S691.328,727.05,988.143,741.074c331.172-3.158,333.886-193.446,624.9-297.616,243.629-81.794,429.53,141.325,633.316,146.767s344.427-152.916,622.452-163.918c360.215,16.568,649.261,228.141,671.69,239.517V820.5L330,820.775Z" transform="translate(-328.01 -354.422)"/><path class="i" d="M312.953,279.164s372.574,379.5,663.755,383.044,390.755-223.6,624.551-300.177S2037.874,508.1,2233.072,510.9,2615.158,343.624,2855,348.246s514.052,133.267,665.648,234.746" transform="translate(-312.953 -275.989)"/><g class="j" transform="translate(2520.361 57.949)"><circle class="k" cx="12.259" cy="12.259" r="12.259"/><circle class="l" cx="12.259" cy="12.259" r="11.259"/></g><g class="j" transform="translate(1369.369 57.019)"><circle class="k" cx="12.259" cy="12.259" r="12.259"/><circle class="l" cx="12.259" cy="12.259" r="11.259"/></g></g><g class="d" transform="translate(-1208.428 468.869)"><path class="h" d="M330,729.221v-374.8S691.328,727.05,988.143,741.074c331.172-3.158,333.886-193.446,624.9-297.616,243.629-81.794,429.53,141.325,633.316,146.767s344.427-152.916,622.452-163.918c360.215,16.568,649.261,228.141,671.69,239.517V820.5L330,820.775Z" transform="translate(-329.21 -354.422)"/><path class="i" d="M312.953,279.164s372.574,379.5,663.755,383.044,390.755-223.6,624.551-300.177S2037.874,508.1,2233.072,510.9,2615.158,343.624,2855,348.246s514.052,133.267,665.648,234.746" transform="translate(-312.953 -275.989)"/><g class="j" transform="translate(2024.412 205.118)"><circle class="k" cx="12.259" cy="12.259" r="12.259"/><circle class="l" cx="12.259" cy="12.259" r="11.259"/></g><g class="j" transform="translate(1270.564 71.755)"><circle class="k" cx="12.259" cy="12.259" r="12.259"/><circle class="l" cx="12.259" cy="12.259" r="11.259"/></g></g></g></svg>